<svg width="960" height="320" viewBox="0 0 960 320" fill="none" xmlns="http://www.w3.org/2000/svg" role="img" aria-labelledby="title desc">
  <title id="title">PetLuma</title>
  <desc id="desc">PetLuma logo with dog and cat line art and the tagline Making Pet Life Brighter.</desc>
  <rect width="960" height="320" fill="transparent"/>
  <g transform="translate(70 36)">
    <path d="M121.7 8.5C68.1 25.9 29.2 76.3 29.2 135.9c0 73.9 59.9 133.8 133.8 133.8 38.9 0 73.9-16.6 98.3-43.1" stroke="#D8A25E" stroke-width="8" stroke-linecap="round"/>
    <path d="M240.5 34.5c4.9 22.2 14.5 31.8 36.7 36.7-22.2 4.9-31.8 14.5-36.7 36.7-4.9-22.2-14.5-31.8-36.7-36.7 22.2-4.9 31.8-14.5 36.7-36.7Z" fill="#D8A25E"/>
    <path d="M278.3 123.2c3 13.6 8.9 19.5 22.5 22.5-13.6 3-19.5 8.9-22.5 22.5-3-13.6-8.9-19.5-22.5-22.5 13.6-3 19.5-8.9 22.5-22.5Z" fill="#D8A25E"/>
    <path d="M94.8 205.5V94.1c0-18.7 16.2-33.1 34.7-30.8l33.6 4.2c28 3.5 49.1 27.4 49.1 55.6v18.3c0 9-7.3 16.3-16.3 16.3h-18.6c-8.9 0-17.5-3.5-23.8-9.8l-19.4-19.4" stroke="#241812" stroke-width="8" stroke-linecap="round" stroke-linejoin="round"/>
    <path d="M132.9 73.9c-4.2 19.8-16.2 33.6-32.4 40.8" stroke="#241812" stroke-width="8" stroke-linecap="round"/>
    <path d="M173.5 108.4c0 8.6-4.7 15.5-10.6 15.5s-10.6-6.9-10.6-15.5" stroke="#241812" stroke-width="7" stroke-linecap="round"/>
    <path d="M159 178.7c17.5 5.1 29.7 20.9 30.3 39.1v32.4" stroke="#241812" stroke-width="8" stroke-linecap="round"/>
    <path d="M64.5 238.6c8.7-34.8 39.8-59.2 75.7-59.2h18.5c15.2 0 28.9 9.1 34.8 23.1l5.6 13.3" stroke="#241812" stroke-width="8" stroke-linecap="round" stroke-linejoin="round"/>
    <path d="M115.8 179.4l-20.2-25.7c-4.2-5.4-12.9-2.4-12.9 4.4v46.3" stroke="#241812" stroke-width="8" stroke-linecap="round" stroke-linejoin="round"/>
    <path d="M139.1 179.5l17.9-22.8c4.2-5.4 12.9-2.4 12.9 4.4v21.1" stroke="#241812" stroke-width="8" stroke-linecap="round" stroke-linejoin="round"/>
    <path d="M104.7 224.5c9.5 7.4 22.4 7.4 31.9 0" stroke="#241812" stroke-width="7" stroke-linecap="round"/>
  </g>
  <g fill="#241812">
    <path d="M353.6 97.9h57.8c34.9 0 57.2 20.7 57.2 52.5 0 32.1-22.3 52.8-57.2 52.8h-28.7v61.1h-29.1V97.9Zm56.4 79.1c18.8 0 29-10 29-26.6 0-16.4-10.2-26.3-29-26.3h-27.3V177H410Z"/>
    <path d="M484.4 204.7c0-37.1 25.7-62.3 60.6-62.3 34.5 0 58.2 24.2 58.2 60.4 0 3.4-.2 6.9-.8 10.8h-89.6c3.1 19.3 16.7 30.5 35.5 30.5 14.9 0 25.2-6 31.6-18.1l21 12.6c-9.8 18.5-28.5 29-53.5 29-37.3 0-63-25-63-62.9Zm90.1-11.2c-2.3-17.8-13.7-28.3-30.1-28.3-16.9 0-28.7 10.6-31.4 28.3h61.5Z"/>
    <path d="M632.3 229.8v-61.5h-23.1v-22.9h23.1v-35h27.4v35h32.1v22.9h-32.1v57.4c0 12.6 5.8 18.4 18.4 18.4 5.3 0 10.8-.9 16.4-2.6v23.3c-7 2.2-14.7 3.3-23.1 3.3-25.7 0-39.1-13.1-39.1-38.3Z"/>
    <path d="M714.4 97.9h29.1v140.4h76.4v26H714.4V97.9Z"/>
    <path d="M836.9 219.1v-73.7h27.4v70.1c0 18.3 9.3 28.5 25.6 28.5 17.8 0 29.7-12.4 29.7-31.2v-67.4H947v118.9h-26.4v-18.1c-8.6 13.6-22.4 21.2-40.2 21.2-27.4 0-43.5-18.3-43.5-48.3Z"/>
  </g>
  <text x="354" y="296" fill="#7A6A5E" font-family="Avenir Next, Segoe UI, Arial, sans-serif" font-size="27" font-weight="600" letter-spacing="16">MAKING PET LIFE BRIGHTER</text>
  <path d="M912 276c3.3 15 9.8 21.5 24.8 24.8-15 3.3-21.5 9.8-24.8 24.8-3.3-15-9.8-21.5-24.8-24.8 15-3.3 21.5-9.8 24.8-24.8Z" fill="#D8A25E" transform="scale(.72) translate(365 88)"/>
</svg>
